<svg width="90" height="90" viewBox="0 0 90 90" fill="none" xmlns="http://www.w3.org/2000/svg">
<path d="M9.70127 3.72C9.0701 3.912 8.46231 4.056 8.3688 4.08C8.27529 4.08 7.574 4.68 6.82594 5.4C5.82075 6.336 5.28309 7.104 4.88568 8.112L4.32465 9.48V44.88V80.28L4.95581 81.648C5.68049 83.232 7.05971 84.696 8.60257 85.464L9.70127 86.04L43.8078 86.112C81.3272 86.184 79.6207 86.232 81.6545 84.72C83.0337 83.712 84.1792 81.888 84.5532 80.088C84.787 78.912 84.8571 71.64 84.8571 44.712C84.8571 10.176 84.8337 9.336 83.9922 7.56C83.4078 6.384 81.7948 4.8 80.4155 4.128L79.1298 3.48L45 3.432C16.387 3.384 10.6831 3.432 9.70127 3.72ZM53.0649 9.84C53.2753 10.44 53.5091 11.088 53.6026 11.28C53.6727 11.472 54 12.456 54.3506 13.44C54.6779 14.424 55.0285 15.456 55.1454 15.72C55.2623 15.984 56.2675 18.792 57.3662 21.96C59.8909 29.112 60.2883 30.264 61.3168 33.12C62.5558 36.576 64.0519 40.776 64.5194 42.12C64.7532 42.768 65.2207 44.064 65.5246 45C66.1792 46.824 67.9558 51.768 69.2883 55.488C69.7558 56.76 70.1298 57.936 70.1298 58.08C70.1298 58.224 70.2233 58.512 70.3402 58.752C70.6675 59.424 70.9948 60.24 71.6493 62.16C72 63.144 72.3506 64.176 72.4675 64.44C72.5844 64.704 72.8415 65.448 73.0519 66.12C73.2857 66.768 73.5428 67.536 73.6363 67.8C73.7532 68.064 74.1039 69.096 74.4545 70.08C75.1792 72.144 76.3013 75.312 77.3532 78.168C77.7506 79.248 78.0779 80.304 78.0779 80.52C78.0779 80.832 77.2597 80.88 71.5558 80.88C66.5532 80.88 65.0104 80.808 64.9168 80.568C64.8701 80.424 63.374 76.488 61.6207 71.832C59.8675 67.176 58.4415 63.312 58.4415 63.216C58.4415 63.144 58.3013 62.736 58.1143 62.328C57.9272 61.896 57.2961 60.216 56.6883 58.56C56.0805 56.904 55.4493 55.224 55.2857 54.84C54.8181 53.736 53.4389 49.824 52.4805 47.04C52.013 45.648 51.5454 44.304 51.4285 44.04C51.3117 43.776 50.8441 42.432 50.4 41.04C49.535 38.376 49.1844 37.344 47.8052 33.48C47.3376 32.16 46.7065 30.312 46.4026 29.4C46.0987 28.464 45.5844 26.952 45.2571 26.04C43.4104 20.76 42.3818 17.784 41.4701 15C40.8857 13.272 40.3246 11.664 40.2311 11.4C39.6467 10.032 39.3194 8.928 39.4363 8.784C39.5298 8.712 42.5454 8.664 46.1454 8.688L52.6909 8.76L53.0649 9.84ZM34.3636 29.64C35.0181 31.488 35.7194 33.312 35.8831 33.72C36.0467 34.104 36.2571 34.704 36.3506 35.04C36.4441 35.376 36.6545 35.952 36.8181 36.36C36.9818 36.744 37.5662 38.28 38.1039 39.768L39.0857 42.432L38.4545 43.968C38.1039 44.784 37.7298 45.696 37.613 45.96C37.4961 46.224 37.0519 47.352 36.6311 48.48C35.2753 51.96 32.7039 58.392 32.2363 59.448C32.0026 60.024 31.7922 60.552 31.7922 60.624C31.7922 60.72 31.5117 61.44 31.1844 62.256C30.8337 63.048 30.4363 64.032 30.2727 64.44C30.1091 64.824 29.7584 65.688 29.5013 66.36C28.1688 69.696 26.813 73.152 26.5324 73.8C26.3688 74.184 26.0649 75 25.8311 75.6C25.5974 76.2 25.2467 77.112 25.013 77.64C24.8026 78.168 24.4285 79.104 24.1948 79.728L23.774 80.88H17.3922C12.413 80.88 10.987 80.808 10.987 80.568C10.987 80.304 11.4545 79.104 13.4883 74.04C13.7922 73.248 14.1428 72.384 14.2363 72.12C14.3532 71.856 14.6337 71.088 14.9143 70.44C15.1714 69.768 15.5454 68.808 15.7324 68.28C16.0363 67.44 16.9246 65.208 17.5324 63.72C17.6259 63.456 18.0701 62.376 18.4675 61.32C18.8883 60.264 19.3558 59.064 19.5194 58.68C19.9402 57.648 21.4831 53.784 21.8571 52.8C22.3714 51.408 23.1662 49.368 23.4935 48.6C23.6571 48.192 24.4519 46.2 25.2467 44.16C27.0701 39.48 27.561 38.232 27.935 37.32C28.2623 36.552 29.9454 32.256 30.6233 30.48C30.8571 29.88 31.348 28.632 31.6987 27.72C32.3532 25.992 32.7272 25.488 32.9844 25.992C33.0545 26.16 33.6857 27.792 34.3636 29.64Z" fill="#E9ECEF"/>
</svg>
